<svg xmlns="http://www.w3.org/2000/svg" viewBox="0 0 1400 800" width="1400" height="800" font-family="Segoe UI,Arial,sans-serif">
<defs>
  <marker id="ma" markerWidth="10" markerHeight="10" refX="9" refY="4" orient="auto"><path d="M0,0 L0,8 L10,4 Z" fill="#374151"/></marker>
  <marker id="mg" markerWidth="10" markerHeight="10" refX="9" refY="4" orient="auto"><path d="M0,0 L0,8 L10,4 Z" fill="#16a34a"/></marker>
  <marker id="mr" markerWidth="10" markerHeight="10" refX="9" refY="4" orient="auto"><path d="M0,0 L0,8 L10,4 Z" fill="#dc2626"/></marker>
  <marker id="mb" markerWidth="10" markerHeight="10" refX="9" refY="4" orient="auto"><path d="M0,0 L0,8 L10,4 Z" fill="#2563eb"/></marker>
  <marker id="mo" markerWidth="10" markerHeight="10" refX="9" refY="4" orient="auto"><path d="M0,0 L0,8 L10,4 Z" fill="#ea580c"/></marker>
  <marker id="mc" markerWidth="10" markerHeight="10" refX="9" refY="4" orient="auto"><path d="M0,0 L0,8 L10,4 Z" fill="#0088cc"/></marker>
  <marker id="mp" markerWidth="10" markerHeight="10" refX="9" refY="4" orient="auto"><path d="M0,0 L0,8 L10,4 Z" fill="#7c3aed"/></marker>
  <marker id="mw" markerWidth="10" markerHeight="10" refX="9" refY="4" orient="auto"><path d="M0,0 L0,8 L10,4 Z" fill="#f59e0b"/></marker>
  <marker id="md" markerWidth="10" markerHeight="10" refX="4" refY="5" orient="auto"><path d="M0,0 L8,0 L4,10 Z" fill="#dc2626"/></marker>
  <marker id="mu" markerWidth="10" markerHeight="10" refX="4" refY="5" orient="auto"><path d="M0,10 L8,10 L4,0 Z" fill="#374151"/></marker>
</defs>

<!-- ==================== BACKGROUND ==================== -->
<rect width="1400" height="800" fill="#f8fafc"/>

<!-- ==================== TITLE ==================== -->
<rect x="0" y="0" width="1400" height="44" fill="#1e293b"/>
<text x="700" y="28" text-anchor="middle" font-size="18" font-weight="700" fill="white">AlgoTrade &#8212; AI Decision Flow &amp; System Architecture</text>

<!-- ==================== MAIN PIPELINE BOX ==================== -->
<rect x="10" y="52" width="1380" height="396" rx="14" fill="white" stroke="#e2e8f0" stroke-width="2"/>
<!-- Pipeline header -->
<rect x="10" y="52" width="1380" height="36" rx="14" fill="#1e293b"/>
<rect x="10" y="74" width="1380" height="14" fill="#1e293b"/>
<!-- Refresh icon -->
<text x="32" y="76" font-size="16" fill="#94a3b8">&#8635;</text>
<text x="54" y="76" font-size="12" font-weight="700" fill="#f8fafc">Auto-Trading Cycle &#8212; Every 60 Seconds &#8212; How the AI Makes Decisions</text>
<text x="1340" y="76" text-anchor="end" font-size="11" fill="#94a3b8">16 symbols &#183; 5 pairs</text>

<!-- ==================== STAGE 1: MARKET DATA ==================== -->
<rect x="18" y="94" width="190" height="344" rx="10" fill="#fffbeb" stroke="#f59e0b" stroke-width="2"/>
<rect x="18" y="94" width="190" height="34" rx="10" fill="#f59e0b"/>
<rect x="18" y="114" width="190" height="14" fill="#f59e0b"/>
<!-- Bar chart icon -->
<rect x="28" y="101" width="6" height="16" rx="1" fill="rgba(255,255,255,0.9)"/>
<rect x="37" y="107" width="6" height="10" rx="1" fill="rgba(255,255,255,0.7)"/>
<rect x="46" y="97" width="6" height="20" rx="1" fill="rgba(255,255,255,0.9)"/>
<text x="113" y="117" text-anchor="middle" font-size="11.5" font-weight="700" fill="white">1. MARKET DATA</text>
<!-- Content -->
<text x="28" y="142" font-size="8.5" fill="#92400e" font-weight="600">DATA SOURCE: Alpaca Markets API</text>
<line x1="28" y1="147" x2="198" y2="147" stroke="#fde68a" stroke-width="1"/>
<text x="28" y="161" font-size="8.5" fill="#374151">&#9642; 16 symbols scanned:</text>
<text x="34" y="173" font-size="7.5" fill="#6b7280">SPY QQQ AAPL MSFT TSLA</text>
<text x="34" y="184" font-size="7.5" fill="#6b7280">NVDA AMD GOOGL GLD SLV...</text>
<text x="28" y="197" font-size="8.5" fill="#374151">&#9642; 5 stat-arb pairs:</text>
<text x="34" y="208" font-size="7.5" fill="#6b7280">SPY/QQQ &#183; GLD/SLV &#183; AAPL/MSFT</text>
<line x1="28" y1="216" x2="198" y2="216" stroke="#fde68a" stroke-width="1"/>
<text x="28" y="229" font-size="8.5" fill="#374151">&#9642; OHLCV bars (1Min&#8211;1Day)</text>
<text x="28" y="242" font-size="8.5" fill="#374151">&#9642; Latest bid/ask quotes</text>
<text x="28" y="255" font-size="8.5" fill="#374151">&#9642; Account equity &amp; cash</text>
<text x="28" y="268" font-size="8.5" fill="#374151">&#9642; Open positions state</text>
<line x1="28" y1="276" x2="198" y2="276" stroke="#fde68a" stroke-width="1"/>
<text x="28" y="289" font-size="8" fill="#92400e" font-weight="600">OUTPUT PAYLOAD:</text>
<rect x="26" y="294" width="174" height="36" rx="4" fill="#fef3c7" stroke="#fde68a" stroke-width="1"/>
<text x="113" y="307" text-anchor="middle" font-size="8" fill="#92400e">&#123; symbol, bars[], quote,</text>
<text x="113" y="318" text-anchor="middle" font-size="8" fill="#92400e">equity, positions &#125;</text>
<text x="28" y="348" font-size="8" fill="#6b7280">REST: /v2/stocks/bars</text>
<text x="28" y="360" font-size="8" fill="#6b7280">REST: /v2/account</text>
<text x="28" y="372" font-size="8" fill="#6b7280">REST: /v2/positions</text>
<text x="113" y="430" text-anchor="middle" font-size="9" font-weight="700" fill="#92400e">Alpaca Markets</text>

<!-- Arrow 1→2 -->
<line x1="208" y1="266" x2="224" y2="266" stroke="#374151" stroke-width="2.5" marker-end="url(#ma)"/>
<rect x="206" y="242" width="22" height="12" rx="3" fill="#f8fafc"/>
<text x="217" y="251" text-anchor="middle" font-size="7" fill="#374151">bars[]</text>

<!-- ==================== STAGE 2: INDICATORS ==================== -->
<rect x="228" y="94" width="190" height="344" rx="10" fill="#eff6ff" stroke="#3b82f6" stroke-width="2"/>
<rect x="228" y="94" width="190" height="34" rx="10" fill="#3b82f6"/>
<rect x="228" y="114" width="190" height="14" fill="#3b82f6"/>
<!-- Wave/oscillator icon -->
<path d="M238,104 Q242,97 246,104 Q250,111 254,104 Q258,97 262,104" fill="none" stroke="rgba(255,255,255,0.9)" stroke-width="2"/>
<text x="323" y="117" text-anchor="middle" font-size="11.5" font-weight="700" fill="white">2. INDICATORS</text>
<!-- Content -->
<text x="238" y="142" font-size="8.5" fill="#1e40af" font-weight="600">TECHNICAL ANALYSIS ENGINE</text>
<line x1="238" y1="147" x2="408" y2="147" stroke="#bfdbfe" stroke-width="1"/>
<!-- Indicator items with small icons -->
<rect x="238" y="153" width="174" height="22" rx="4" fill="#dbeafe"/>
<text x="248" y="164" font-size="8" fill="#1d4ed8" font-weight="600">RSI(14)</text>
<text x="340" y="164" font-size="7.5" fill="#374151">Momentum oscillator</text>
<text x="248" y="174" font-size="7" fill="#6b7280">Oversold &lt;30 / Overbought &gt;70</text>
<rect x="238" y="180" width="174" height="22" rx="4" fill="#dbeafe"/>
<text x="248" y="191" font-size="8" fill="#1d4ed8" font-weight="600">Bollinger Bands(20,2)</text>
<text x="248" y="201" font-size="7" fill="#6b7280">Upper / Middle / Lower band</text>
<rect x="238" y="206" width="174" height="22" rx="4" fill="#dbeafe"/>
<text x="248" y="217" font-size="8" fill="#1d4ed8" font-weight="600">EMA(9) &amp; EMA(21)</text>
<text x="248" y="227" font-size="7" fill="#6b7280">Short-term trend crossover</text>
<rect x="238" y="232" width="174" height="22" rx="4" fill="#dbeafe"/>
<text x="248" y="243" font-size="8" fill="#1d4ed8" font-weight="600">MACD(12,26,9)</text>
<text x="248" y="253" font-size="7" fill="#6b7280">Trend strength &amp; direction</text>
<rect x="238" y="258" width="174" height="22" rx="4" fill="#dbeafe"/>
<text x="248" y="269" font-size="8" fill="#1d4ed8" font-weight="600">VWAP</text>
<text x="248" y="279" font-size="7" fill="#6b7280">Volume-weighted avg price</text>
<rect x="238" y="284" width="174" height="22" rx="4" fill="#dbeafe"/>
<text x="248" y="295" font-size="8" fill="#1d4ed8" font-weight="600">Z-score of spread (OLS)</text>
<text x="248" y="305" font-size="7" fill="#6b7280">Statistical arbitrage signal</text>
<rect x="238" y="310" width="174" height="22" rx="4" fill="#dbeafe"/>
<text x="248" y="321" font-size="8" fill="#1d4ed8" font-weight="600">ATR(14)</text>
<text x="248" y="331" font-size="7" fill="#6b7280">Volatility / position sizing</text>
<text x="238" y="350" font-size="8" fill="#1e40af" font-weight="600">OUTPUT:</text>
<rect x="236" y="354" width="176" height="26" rx="4" fill="#bfdbfe" stroke="#93c5fd" stroke-width="1"/>
<text x="324" y="364" text-anchor="middle" font-size="7.5" fill="#1e40af">rsi=28, bb_lower=180, ema_bull,</text>
<text x="324" y="375" text-anchor="middle" font-size="7.5" fill="#1e40af">macd_signal, z_score=2.3</text>

<!-- Arrow 2→3 -->
<line x1="418" y1="266" x2="434" y2="266" stroke="#374151" stroke-width="2.5" marker-end="url(#ma)"/>
<rect x="414" y="248" width="24" height="28" rx="3" fill="#f8fafc"/>
<text x="426" y="259" text-anchor="middle" font-size="6.5" fill="#374151">indicator</text>
<text x="426" y="269" text-anchor="middle" font-size="6.5" fill="#374151">values</text>

<!-- ==================== STAGE 3: STRATEGY ENGINE ==================== -->
<rect x="438" y="94" width="270" height="344" rx="10" fill="#fdf4ff" stroke="#9333ea" stroke-width="2"/>
<rect x="438" y="94" width="270" height="34" rx="10" fill="#9333ea"/>
<rect x="438" y="114" width="270" height="14" fill="#9333ea"/>
<!-- Brain/decision icon: diamond shape -->
<path d="M448,108 L456,100 L464,108 L456,116 Z" fill="rgba(255,255,255,0.8)"/>
<line x1="452" y1="108" x2="460" y2="108" stroke="#9333ea" stroke-width="1.5"/>
<line x1="456" y1="104" x2="456" y2="112" stroke="#9333ea" stroke-width="1.5"/>
<text x="573" y="117" text-anchor="middle" font-size="11.5" font-weight="700" fill="white">3. STRATEGY ENGINE</text>

<!-- 4 strategy sub-boxes -->
<text x="448" y="140" font-size="8.5" fill="#6b21a8" font-weight="600">4 STRATEGIES EVALUATE IN PARALLEL:</text>

<!-- Stat-Arb -->
<rect x="446" y="146" width="254" height="42" rx="6" fill="#f3e8ff" stroke="#c084fc" stroke-width="1.5"/>
<rect x="446" y="146" width="80" height="42" rx="6" fill="#9333ea"/>
<rect x="506" y="146" width="20" height="42" fill="#9333ea"/>
<text x="487" y="160" text-anchor="middle" font-size="8" font-weight="700" fill="white">STAT-ARB</text>
<text x="487" y="172" text-anchor="middle" font-size="7" fill="rgba(255,255,255,0.85)">Z-score / OLS</text>
<text x="520" y="158" font-size="7.5" fill="#374151">IF z_score &gt; +2.0 &#8594; SELL spread</text>
<text x="520" y="169" font-size="7.5" fill="#374151">IF z_score &lt; -2.0 &#8594; BUY spread</text>
<text x="520" y="180" font-size="7" fill="#6b7280">Cointegration check &#183; ADF test</text>

<!-- Mean Reversion -->
<rect x="446" y="194" width="254" height="42" rx="6" fill="#f3e8ff" stroke="#c084fc" stroke-width="1.5"/>
<rect x="446" y="194" width="80" height="42" rx="6" fill="#7c3aed"/>
<rect x="506" y="194" width="20" height="42" fill="#7c3aed"/>
<text x="487" y="208" text-anchor="middle" font-size="8" font-weight="700" fill="white">MEAN REV</text>
<text x="487" y="220" text-anchor="middle" font-size="7" fill="rgba(255,255,255,0.85)">Bollinger+RSI</text>
<text x="520" y="206" font-size="7.5" fill="#374151">IF RSI &lt; 30 AND price &lt; BB_lower</text>
<text x="520" y="217" font-size="7.5" fill="#374151">&#8594; BUY (oversold reversion)</text>
<text x="520" y="228" font-size="7" fill="#6b7280">5 symbols: AAPL MSFT GOOGL...</text>

<!-- EMA Momentum -->
<rect x="446" y="242" width="254" height="42" rx="6" fill="#f3e8ff" stroke="#c084fc" stroke-width="1.5"/>
<rect x="446" y="242" width="80" height="42" rx="6" fill="#6d28d9"/>
<rect x="506" y="242" width="20" height="42" fill="#6d28d9"/>
<text x="487" y="256" text-anchor="middle" font-size="8" font-weight="700" fill="white">MOMENTUM</text>
<text x="487" y="268" text-anchor="middle" font-size="7" fill="rgba(255,255,255,0.85)">EMA+MACD+VWAP</text>
<text x="520" y="254" font-size="7.5" fill="#374151">IF EMA9 &gt; EMA21 AND MACD &gt; signal</text>
<text x="520" y="265" font-size="7.5" fill="#374151">AND price &gt; VWAP &#8594; BUY</text>
<text x="520" y="276" font-size="7" fill="#6b7280">4 symbols: NVDA AMD TSLA...</text>

<!-- Pairs Trading -->
<rect x="446" y="290" width="254" height="42" rx="6" fill="#f3e8ff" stroke="#c084fc" stroke-width="1.5"/>
<rect x="446" y="290" width="80" height="42" rx="6" fill="#5b21b6"/>
<rect x="506" y="290" width="20" height="42" fill="#5b21b6"/>
<text x="487" y="304" text-anchor="middle" font-size="8" font-weight="700" fill="white">PAIRS</text>
<text x="487" y="316" text-anchor="middle" font-size="7" fill="rgba(255,255,255,0.85)">Dollar-neutral</text>
<text x="520" y="302" font-size="7.5" fill="#374151">IF |spread| &gt; 1.5&#963; &#8594; LONG leg A</text>
<text x="520" y="313" font-size="7.5" fill="#374151">&#8594; SHORT leg B (dollar neutral)</text>
<text x="520" y="324" font-size="7" fill="#6b7280">GLD/SLV &#183; OLS hedge ratio</text>

<!-- Signal output box -->
<text x="448" y="350" font-size="8.5" fill="#6b21a8" font-weight="600">GENERATED SIGNAL:</text>
<rect x="446" y="354" width="254" height="30" rx="5" fill="#e9d5ff" stroke="#a855f7" stroke-width="1.5"/>
<text x="573" y="366" text-anchor="middle" font-size="7.5" fill="#6b21a8">&#123; action: BUY, symbol: NVDA, qty: 5,</text>
<text x="573" y="377" text-anchor="middle" font-size="7.5" fill="#6b21a8">confidence: 0.85, reason: EMA_cross+MACD &#125;</text>

<!-- Arrow 3→4 with signal label -->
<line x1="708" y1="260" x2="722" y2="260" stroke="#7c3aed" stroke-width="3" marker-end="url(#mp)"/>
<rect x="703" y="236" width="32" height="36" rx="3" fill="#fdf4ff" stroke="#c084fc" stroke-width="1"/>
<text x="719" y="248" text-anchor="middle" font-size="6.5" fill="#7c3aed" font-weight="600">Signal</text>
<text x="719" y="258" text-anchor="middle" font-size="6" fill="#7c3aed">BUY NVDA</text>
<text x="719" y="267" text-anchor="middle" font-size="6" fill="#7c3aed">conf=85%</text>

<!-- ==================== STAGE 4: RISK MANAGER ==================== -->
<rect x="726" y="94" width="190" height="344" rx="10" fill="#fff1f2" stroke="#e11d48" stroke-width="2"/>
<rect x="726" y="94" width="190" height="34" rx="10" fill="#e11d48"/>
<rect x="726" y="114" width="190" height="14" fill="#e11d48"/>
<!-- Shield icon -->
<path d="M736,116 L736,103 L752,99 L768,103 L768,116 Q768,124 752,128 Q736,124 736,116 Z" fill="rgba(255,255,255,0.85)"/>
<path d="M742,112 L749,119 L762,106" stroke="#e11d48" stroke-width="2.5" fill="none" stroke-linecap="round" stroke-linejoin="round"/>
<text x="821" y="117" text-anchor="middle" font-size="11.5" font-weight="700" fill="white">4. RISK MANAGER</text>
<!-- Content -->
<text x="736" y="142" font-size="8.5" fill="#9f1239" font-weight="600">POSITION SIZING RULES:</text>
<line x1="736" y1="147" x2="906" y2="147" stroke="#fecdd3" stroke-width="1"/>
<rect x="734" y="152" width="174" height="16" rx="3" fill="#ffe4e6"/>
<text x="821" y="163" text-anchor="middle" font-size="7.5" fill="#9f1239">Kelly Criterion (Half-Kelly): f* = (bp-q)/b</text>
<rect x="734" y="172" width="174" height="16" rx="3" fill="#ffe4e6"/>
<text x="821" y="183" text-anchor="middle" font-size="7.5" fill="#9f1239">ATR sizing: risk 1% equity per trade</text>
<rect x="734" y="192" width="174" height="16" rx="3" fill="#ffe4e6"/>
<text x="821" y="203" text-anchor="middle" font-size="7.5" fill="#9f1239">Max position: 5% equity per symbol</text>
<line x1="736" y1="214" x2="906" y2="214" stroke="#fecdd3" stroke-width="1"/>
<text x="736" y="226" font-size="8.5" fill="#9f1239" font-weight="600">CIRCUIT BREAKERS (auto-reject):</text>
<rect x="734" y="231" width="174" height="16" rx="3" fill="#fee2e2"/>
<text x="821" y="242" text-anchor="middle" font-size="7.5" fill="#dc2626">Portfolio heat &gt; 20% &#8594; SKIP</text>
<rect x="734" y="251" width="174" height="16" rx="3" fill="#fee2e2"/>
<text x="821" y="262" text-anchor="middle" font-size="7.5" fill="#dc2626">Daily loss &gt; -3% &#8594; HALT ALL</text>
<rect x="734" y="271" width="174" height="16" rx="3" fill="#fee2e2"/>
<text x="821" y="282" text-anchor="middle" font-size="7.5" fill="#dc2626">Drawdown &gt; -8% &#8594; PAUSE</text>
<rect x="734" y="291" width="174" height="16" rx="3" fill="#fee2e2"/>
<text x="821" y="302" text-anchor="middle" font-size="7.5" fill="#dc2626">Position already open &#8594; SKIP</text>
<line x1="736" y1="313" x2="906" y2="313" stroke="#fecdd3" stroke-width="1"/>
<!-- Decision outputs -->
<rect x="734" y="320" width="80" height="30" rx="5" fill="#dcfce7" stroke="#22c55e" stroke-width="2"/>
<text x="774" y="331" text-anchor="middle" font-size="9" font-weight="700" fill="#15803d">&#10003; PASS</text>
<text x="774" y="343" text-anchor="middle" font-size="7.5" fill="#15803d">qty=4 (ATR)</text>
<rect x="828" y="320" width="80" height="30" rx="5" fill="#fee2e2" stroke="#ef4444" stroke-width="2"/>
<text x="868" y="331" text-anchor="middle" font-size="9" font-weight="700" fill="#dc2626">&#10007; REJECT</text>
<text x="868" y="343" text-anchor="middle" font-size="7.5" fill="#dc2626">skip cycle</text>

<!-- Arrow 4→5 APPROVED (green, upper) -->
<line x1="916" y1="250" x2="930" y2="250" stroke="#16a34a" stroke-width="3" marker-end="url(#mg)"/>
<rect x="910" y="232" width="26" height="26" rx="3" fill="#f0fdf4" stroke="#4ade80" stroke-width="1"/>
<text x="923" y="242" text-anchor="middle" font-size="6.5" fill="#15803d" font-weight="700">&#10003; qty</text>
<text x="923" y="252" text-anchor="middle" font-size="6.5" fill="#15803d">=4</text>

<!-- Arrow 4 REJECTED (red, downward) -->
<line x1="868" y1="350" x2="868" y2="400" stroke="#dc2626" stroke-width="2" stroke-dasharray="5,3" marker-end="url(#md)"/>
<rect x="844" y="378" width="68" height="20" rx="4" fill="#fee2e2" stroke="#f87171" stroke-width="1"/>
<text x="878" y="392" text-anchor="middle" font-size="7.5" fill="#dc2626">&#10007; skipped</text>

<!-- ==================== STAGE 5: ORDER EXECUTION ==================== -->
<rect x="934" y="94" width="190" height="344" rx="10" fill="#f0fdf4" stroke="#16a34a" stroke-width="2"/>
<rect x="934" y="94" width="190" height="34" rx="10" fill="#16a34a"/>
<rect x="934" y="114" width="190" height="14" fill="#16a34a"/>
<!-- Lightning bolt icon -->
<path d="M946,116 L954,102 L958,112 L966,100 L958,116 L964,116 L956,130 L952,118 Z" fill="rgba(255,255,255,0.9)"/>
<text x="1029" y="117" text-anchor="middle" font-size="11.5" font-weight="700" fill="white">5. EXECUTION</text>
<!-- Content -->
<text x="944" y="142" font-size="8.5" fill="#14532d" font-weight="600">ORDER SUBMISSION:</text>
<line x1="944" y1="147" x2="1114" y2="147" stroke="#86efac" stroke-width="1"/>
<rect x="942" y="152" width="174" height="22" rx="4" fill="#dcfce7"/>
<text x="1029" y="163" text-anchor="middle" font-size="8" fill="#15803d" font-weight="600">BRACKET ORDER</text>
<text x="1029" y="173" text-anchor="middle" font-size="7.5" fill="#374151">Market entry + TP + SL linked</text>
<text x="944" y="190" font-size="8.5" fill="#374151">&#9642; Take-Profit: +2.5%</text>
<text x="944" y="203" font-size="8.5" fill="#374151">&#9642; Stop-Loss: &#8722;1.5%</text>
<text x="944" y="216" font-size="8.5" fill="#374151">&#9642; Order type: Market/Limit</text>
<text x="944" y="229" font-size="8.5" fill="#374151">&#9642; Trailing stop option</text>
<line x1="944" y1="236" x2="1114" y2="236" stroke="#86efac" stroke-width="1"/>
<text x="944" y="249" font-size="8.5" fill="#14532d" font-weight="600">MONITORING (every cycle):</text>
<text x="944" y="262" font-size="8.5" fill="#374151">&#9642; Check open positions P&amp;L</text>
<text x="944" y="275" font-size="8.5" fill="#374151">&#9642; Cancel stale orders &gt;10min</text>
<text x="944" y="288" font-size="8.5" fill="#374151">&#9642; Auto-close at TP/SL hit</text>
<text x="944" y="301" font-size="8.5" fill="#374151">&#9642; Max 10 concurrent positions</text>
<line x1="944" y1="308" x2="1114" y2="308" stroke="#86efac" stroke-width="1"/>
<text x="944" y="321" font-size="8.5" fill="#14532d" font-weight="600">RESULT:</text>
<rect x="942" y="326" width="174" height="40" rx="4" fill="#dcfce7" stroke="#4ade80" stroke-width="1.5"/>
<text x="1029" y="340" text-anchor="middle" font-size="7.5" fill="#14532d">Order filled: NVDA x4 @ $198.23</text>
<text x="1029" y="351" text-anchor="middle" font-size="7.5" fill="#14532d">TP: $203.19 &#183; SL: $195.25</text>
<text x="1029" y="362" text-anchor="middle" font-size="7" fill="#6b7280">via Alpaca POST /v2/orders</text>

<!-- Arrow 5→6 -->
<line x1="1124" y1="266" x2="1138" y2="266" stroke="#374151" stroke-width="2.5" marker-end="url(#ma)"/>

<!-- ==================== STAGE 6: RESULTS & STORAGE ==================== -->
<rect x="1142" y="94" width="238" height="344" rx="10" fill="#f0f9ff" stroke="#0284c7" stroke-width="2"/>
<rect x="1142" y="94" width="238" height="34" rx="10" fill="#0284c7"/>
<rect x="1142" y="114" width="238" height="14" fill="#0284c7"/>
<text x="1261" y="117" text-anchor="middle" font-size="11.5" font-weight="700" fill="white">6. RESULTS &amp; MONITORING</text>

<!-- Firestore sub-box -->
<rect x="1150" y="134" width="222" height="80" rx="7" fill="white" stroke="#f97316" stroke-width="1.5"/>
<rect x="1150" y="134" width="222" height="22" rx="7" fill="#f97316"/>
<rect x="1150" y="148" width="222" height="8" fill="#f97316"/>
<!-- Flame icon -->
<path d="M1160,138 Q1156,134 1160,130 Q1159,135 1163,133 Q1160,138 1163,141 Q1165,133 1168,130 Q1169,139 1165,142 Q1167,135 1170,136 Q1171,143 1165,145 Q1158,147 1157,141 Q1155,138 1160,138 Z" fill="rgba(255,255,255,0.85)"/>
<text x="1261" y="148" text-anchor="middle" font-size="10" font-weight="700" fill="white">Firebase Firestore</text>
<text x="1158" y="168" font-size="7.5" fill="#374151">&#9642; trades &#8592; filled order details</text>
<text x="1158" y="179" font-size="7.5" fill="#374151">&#9642; trade_signals &#8592; every signal</text>
<text x="1158" y="190" font-size="7.5" fill="#374151">&#9642; portfolio_snapshots &#8592; equity</text>
<text x="1158" y="201" font-size="7.5" fill="#6b7280">&#160;&#160;project: gemini2-466412</text>

<!-- Telegram sub-box -->
<rect x="1150" y="222" width="222" height="80" rx="7" fill="white" stroke="#0088cc" stroke-width="1.5"/>
<rect x="1150" y="222" width="222" height="22" rx="7" fill="#2AABEE"/>
<rect x="1150" y="236" width="222" height="8" fill="#2AABEE"/>
<!-- Telegram plane icon -->
<circle cx="1165" cy="233" r="10" fill="rgba(255,255,255,0.2)"/>
<path d="M1157,233 L1171,228 L1167,239 L1163,234 Z" fill="white"/>
<path d="M1163,234 L1165,237 L1167,239 L1164,232 Z" fill="rgba(0,80,130,0.4)"/>
<text x="1261" y="236" text-anchor="middle" font-size="10" font-weight="700" fill="white">Telegram Notification</text>
<text x="1158" y="256" font-size="7.5" fill="#374151">&#9642; &#34;BUY NVDA x4 @ $198.23 ✓&#34;</text>
<text x="1158" y="267" font-size="7.5" fill="#374151">&#9642; Confidence: 85% (EMA cross)</text>
<text x="1158" y="278" font-size="7.5" fill="#374151">&#9642; TP $203.19 / SL $195.25</text>
<text x="1158" y="289" font-size="7.5" fill="#6b7280">&#160;&#160;via api.telegram.org/bot</text>

<!-- Dashboard sub-box -->
<rect x="1150" y="310" width="222" height="72" rx="7" fill="white" stroke="#3b82f6" stroke-width="1.5"/>
<rect x="1150" y="310" width="222" height="22" rx="7" fill="#3b82f6"/>
<rect x="1150" y="324" width="222" height="8" fill="#3b82f6"/>
<text x="1261" y="324" text-anchor="middle" font-size="10" font-weight="700" fill="white">Dashboard UI (React)</text>
<text x="1158" y="344" font-size="7.5" fill="#374151">&#9642; Portfolio chart updates</text>
<text x="1158" y="355" font-size="7.5" fill="#374151">&#9642; Open positions table</text>
<text x="1158" y="366" font-size="7.5" fill="#374151">&#9642; P&amp;L bar chart, orders log</text>

<!-- ==================== FEEDBACK LOOP ARROW ==================== -->
<text x="700" y="456" text-anchor="middle" font-size="9" fill="#6b7280" font-style="italic">Portfolio state feeds back into next cycle (equity, open positions &#8594; Stage 1)</text>
<line x1="1261" y1="438" x2="1261" y2="454" stroke="#94a3b8" stroke-width="1.5" stroke-dasharray="4,3" marker-end="url(#mu)"/>
<line x1="1261" y1="454" x2="113" y2="454" stroke="#94a3b8" stroke-width="1.5" stroke-dasharray="4,3"/>
<line x1="113" y1="454" x2="113" y2="438" stroke="#94a3b8" stroke-width="1.5" stroke-dasharray="4,3" marker-end="url(#mu)"/>

<!-- ==================== CI/CD DEPLOYMENT SECTION ==================== -->
<rect x="10" y="468" width="1380" height="36" rx="8" fill="#1e293b"/>
<text x="700" y="490" text-anchor="middle" font-size="12" font-weight="700" fill="white">Deployment Infrastructure &#8212; CI/CD Pipeline</text>

<!-- Dev box -->
<rect x="18" y="512" width="168" height="92" rx="10" fill="white" stroke="#8b5cf6" stroke-width="2"/>
<circle cx="58" cy="548" r="22" fill="#7c3aed"/>
<circle cx="58" cy="542" r="11" fill="white"/>
<path d="M40,568 Q40,558 58,558 Q76,558 76,568 Z" fill="white"/>
<text x="102" y="541" font-size="9" fill="#374151" font-weight="600">Developer</text>
<text x="102" y="554" font-size="8" fill="#6b7280">Write strategies</text>
<text x="102" y="566" font-size="8" fill="#6b7280">Fix bugs</text>
<text x="102" y="578" font-size="8" fill="#6b7280">git commit</text>
<text x="93" y="596" text-anchor="middle" font-size="8" fill="#5b21b6" font-style="italic">git push</text>

<line x1="186" y1="558" x2="202" y2="558" stroke="#374151" stroke-width="2" marker-end="url(#ma)"/>

<!-- GitHub box -->
<rect x="206" y="512" width="168" height="92" rx="10" fill="white" stroke="#374151" stroke-width="2"/>
<circle cx="246" cy="548" r="22" fill="#24292e"/>
<polygon points="232,531 225,519 236,527" fill="#24292e"/>
<polygon points="260,531 267,519 256,527" fill="#24292e"/>
<ellipse cx="246" cy="546" rx="14" ry="12" fill="#f0ece4"/>
<circle cx="239" cy="544" r="2.8" fill="#24292e"/>
<circle cx="253" cy="544" r="2.8" fill="#24292e"/>
<path d="M241,551 Q246,555 251,551" stroke="#24292e" stroke-width="1.5" fill="none"/>
<text x="290" y="538" font-size="9" fill="#374151" font-weight="600">GitHub</text>
<text x="290" y="551" font-size="8" fill="#6b7280">Source control</text>
<text x="290" y="563" font-size="8" fill="#6b7280">PR reviews</text>
<text x="290" y="575" font-size="8" fill="#6b7280">Branch: main</text>
<text x="290" y="597" font-size="8" fill="#6b7280">watcharaponthod-code</text>

<line x1="374" y1="558" x2="390" y2="558" stroke="#22c55e" stroke-width="2" marker-end="url(#mg)"/>

<!-- GitHub Actions box -->
<rect x="394" y="512" width="180" height="92" rx="10" fill="white" stroke="#22c55e" stroke-width="2"/>
<circle cx="434" cy="548" r="22" fill="#22c55e"/>
<polygon points="426,536 426,560 450,548" fill="white"/>
<circle cx="478" cy="540" r="12" fill="none" stroke="#22c55e" stroke-width="2"/>
<circle cx="478" cy="540" r="5" fill="#dcfce7"/>
<line x1="478" y1="528" x2="478" y2="524" stroke="#22c55e" stroke-width="2"/>
<line x1="478" y1="552" x2="478" y2="556" stroke="#22c55e" stroke-width="2"/>
<line x1="466" y1="540" x2="462" y2="540" stroke="#22c55e" stroke-width="2"/>
<line x1="490" y1="540" x2="494" y2="540" stroke="#22c55e" stroke-width="2"/>
<text x="484" y="568" font-size="9" fill="#15803d" font-weight="600">GitHub Actions</text>
<text x="484" y="580" font-size="8" fill="#6b7280">vercel-deploy.yml</text>
<text x="484" y="592" font-size="8" fill="#6b7280">npm run build</text>

<line x1="574" y1="558" x2="590" y2="558" stroke="#374151" stroke-width="2" marker-end="url(#ma)"/>

<!-- Vercel box -->
<rect x="594" y="512" width="168" height="92" rx="10" fill="white" stroke="#111827" stroke-width="2.5"/>
<polygon points="648" y="526 620,568 676,568" fill="#000000"/>
<text x="648" y="568" text-anchor="middle" visibility="hidden">x</text>
<polygon points="648,526 620,568 676,568" fill="#000000"/>
<text x="714" y="541" font-size="9" fill="#111827" font-weight="600">Vercel Deploy</text>
<text x="714" y="554" font-size="8" fill="#6b7280">Edge Network CDN</text>
<text x="714" y="566" font-size="8" fill="#6b7280">~30 second deploy</text>
<text x="714" y="578" font-size="8" fill="#6b7280">Auto-scale serverless</text>

<line x1="762" y1="558" x2="778" y2="558" stroke="#f59e0b" stroke-width="2.5" marker-end="url(#mw)"/>
<text x="770" y="550" text-anchor="middle" font-size="7" fill="#d97706" font-weight="600">deploy</text>

<!-- Next.js App box -->
<rect x="782" y="512" width="234" height="92" rx="10" fill="white" stroke="#f59e0b" stroke-width="2"/>
<rect x="782" y="512" width="234" height="28" rx="10" fill="#f59e0b"/>
<rect x="782" y="528" width="234" height="12" fill="#f59e0b"/>
<circle cx="800" cy="522" r="11" fill="rgba(0,0,0,0.25)"/>
<text x="800" y="526" text-anchor="middle" font-size="12" font-weight="900" fill="white">N</text>
<text x="899" y="526" text-anchor="middle" font-size="10" font-weight="700" fill="white">Next.js 16 App</text>
<text x="792" y="554" font-size="7.5" fill="#374151">&#9642; Dashboard UI (React + Recharts)</text>
<text x="792" y="565" font-size="7.5" fill="#374151">&#9642; 14 API Routes (strategy, trade...)</text>
<text x="792" y="576" font-size="7.5" fill="#374151">&#9642; Auto-Trader Engine (60s loop)</text>
<text x="792" y="587" font-size="7.5" fill="#374151">&#9642; localhost:3000 / Vercel URL</text>

<line x1="1016" y1="558" x2="1030" y2="558" stroke="#0284c7" stroke-width="2" marker-end="url(#mb)"/>
<text x="1023" y="550" text-anchor="middle" font-size="7" fill="#0284c7">HTTP</text>

<!-- User box -->
<rect x="1034" y="512" width="168" height="92" rx="10" fill="white" stroke="#0284c7" stroke-width="2"/>
<circle cx="1074" cy="548" r="22" fill="#0284c7"/>
<circle cx="1074" cy="542" r="11" fill="white"/>
<path d="M1056,568 Q1056,558 1074,558 Q1092,558 1092,568 Z" fill="white"/>
<text x="1118" y="541" font-size="9" fill="#0c4a6e" font-weight="600">User / Trader</text>
<text x="1118" y="554" font-size="8" fill="#6b7280">Browser dashboard</text>
<text x="1118" y="566" font-size="8" fill="#6b7280">View portfolio</text>
<text x="1118" y="578" font-size="8" fill="#6b7280">Monitor trades</text>

<!-- ==================== LEGEND ==================== -->
<rect x="10" y="616" width="1380" height="58" rx="8" fill="white" stroke="#e2e8f0" stroke-width="1"/>
<text x="28" y="632" font-size="10" font-weight="700" fill="#374151">Decision Flow:</text>
<rect x="28" y="638" width="90" height="18" rx="4" fill="#dcfce7" stroke="#22c55e" stroke-width="1.5"/>
<text x="73" y="651" text-anchor="middle" font-size="8.5" fill="#15803d" font-weight="600">&#10003; APPROVED &#8594; Execute</text>
<rect x="126" y="638" width="90" height="18" rx="4" fill="#fee2e2" stroke="#ef4444" stroke-width="1.5"/>
<text x="171" y="651" text-anchor="middle" font-size="8.5" fill="#dc2626" font-weight="600">&#10007; REJECTED &#8594; Skip</text>
<text x="234" y="650" font-size="9" fill="#374151" font-weight="600">&#160;&#160;&#160;Data Flow:</text>
<line x1="290" y1="647" x2="316" y2="647" stroke="#374151" stroke-width="2" marker-end="url(#ma)"/>
<text x="320" y="651" font-size="8.5" fill="#374151">Market data / orders</text>
<line x1="440" y1="647" x2="466" y2="647" stroke="#22c55e" stroke-width="2" stroke-dasharray="5,3" marker-end="url(#mg)"/>
<text x="470" y="651" font-size="8.5" fill="#374151">Fill / Market data response</text>
<line x1="618" y1="647" x2="644" y2="647" stroke="#94a3b8" stroke-width="1.5" stroke-dasharray="4,3"/>
<text x="648" y="651" font-size="8.5" fill="#6b7280">Feedback loop (portfolio state)</text>
<text x="830" y="650" font-size="9" fill="#374151" font-weight="600">&#160;&#160;Tech Stack:</text>
<text x="900" y="650" font-size="8.5" fill="#6b7280">Next.js 16 &#183; TypeScript &#183; Alpaca Markets &#183; Firebase Firestore (gemini2-466412) &#183; Telegram Bot &#183; Vercel</text>

</svg>